# xmcd
#
# Track frame offsets:
#	150
#	11298
#	22660
#	32433
#	43595
#	54455
#	65964
#	75563
#	88923
#	98657
#
# Disc length: 1485 seconds
#
# Revision: 1
# Processed by: cddbd v1.5.2PL0 Copyright (c) Steve Scherf et al.
# Submitted via: audiograbber 1.83.01
#
DISCID=6c05cb0a
DTITLE=George Jones - 4-0-33
DYEAR=1972
DGENRE=Country
TTITLE0=4-0-33
TTITLE1=Along Came You
TTITLE2=Feeling Single Seeing Double
TTITLE3=I Don't Love You Anymore
TTITLE4=King Of The Road
TTITLE5=I'm Wasting Good Paper
TTITLE6=I'd Rather Switch Than Fight
TTITLE7=We're Watching Our Step
TTITLE8=Unfaithful One
TTITLE9=I'll Be Your Steppin' Stone
EXTD=
EXTT0=
EXTT1=
EXTT2=
EXTT3=
EXTT4=
EXTT5=
EXTT6=
EXTT7=
EXTT8=
EXTT9=
PLAYORDER=
